<svg width="24" height="24" viewBox="0 0 24 24" fill="none" xmlns="http://www.w3.org/2000/svg">
<g id="category">
<mask id="mask0_1002_4326" style="mask-type:alpha" maskUnits="userSpaceOnUse" x="0" y="0" width="24" height="24">
<rect id="Bounding box" width="24" height="24" fill="#D9D9D9"/>
</mask>
<g mask="url(#mask0_1002_4326)">
<path id="category_2" d="M7.19234 10.6155L12 2.73096L16.8076 10.6155H7.19234ZM17.5 21.6155C16.3526 21.6155 15.3798 21.2165 14.5817 20.4184C13.7837 19.6203 13.3846 18.6476 13.3846 17.5001C13.3846 16.3527 13.7837 15.38 14.5817 14.5819C15.3798 13.7838 16.3526 13.3848 17.5 13.3848C18.6474 13.3848 19.6202 13.7838 20.4182 14.5819C21.2163 15.38 21.6153 16.3527 21.6153 17.5001C21.6153 18.6476 21.2163 19.6203 20.4182 20.4184C19.6202 21.2165 18.6474 21.6155 17.5 21.6155ZM3.38464 21.1155V13.8848H10.6153V21.1155H3.38464ZM17.4997 20.1155C18.232 20.1155 18.851 19.8627 19.3567 19.3571C19.8625 18.8516 20.1154 18.2326 20.1154 17.5004C20.1154 16.7682 19.8626 16.1492 19.357 15.6434C18.8514 15.1376 18.2325 14.8847 17.5003 14.8847C16.768 14.8847 16.149 15.1375 15.6433 15.6431C15.1375 16.1487 14.8846 16.7676 14.8846 17.4999C14.8846 18.2321 15.1374 18.8511 15.643 19.3569C16.1486 19.8626 16.7675 20.1155 17.4997 20.1155ZM4.88459 19.6155H9.11539V15.3847H4.88459V19.6155ZM9.83844 9.11553H14.1615L12 5.63858L9.83844 9.11553Z" fill="white"/>
</g>
</g>
</svg>
