<svg width="24" height="24" viewBox="0 0 24 24" fill="none" xmlns="http://www.w3.org/2000/svg">
<g id="category">
<mask id="mask0_954_2391" style="mask-type:alpha" maskUnits="userSpaceOnUse" x="0" y="0" width="24" height="24">
<rect id="Bounding box" width="24" height="24" fill="#D9D9D9"/>
</mask>
<g mask="url(#mask0_954_2391)">
<path id="category_2" d="M7.19234 10.6154L12 2.73083L16.8076 10.6154H7.19234ZM17.5 21.6154C16.3526 21.6154 15.3798 21.2163 14.5817 20.4183C13.7837 19.6202 13.3846 18.6474 13.3846 17.5C13.3846 16.3526 13.7837 15.3798 14.5817 14.5818C15.3798 13.7837 16.3526 13.3847 17.5 13.3847C18.6474 13.3847 19.6202 13.7837 20.4182 14.5818C21.2163 15.3798 21.6153 16.3526 21.6153 17.5C21.6153 18.6474 21.2163 19.6202 20.4182 20.4183C19.6202 21.2163 18.6474 21.6154 17.5 21.6154ZM3.38464 21.1154V13.8847H10.6153V21.1154H3.38464ZM17.4997 20.1154C18.232 20.1154 18.851 19.8626 19.3567 19.357C19.8625 18.8514 20.1154 18.2325 20.1154 17.5003C20.1154 16.7681 19.8626 16.1491 19.357 15.6433C18.8514 15.1375 18.2325 14.8846 17.5003 14.8846C16.768 14.8846 16.149 15.1374 15.6433 15.643C15.1375 16.1486 14.8846 16.7675 14.8846 17.4997C14.8846 18.232 15.1374 18.851 15.643 19.3567C16.1486 19.8625 16.7675 20.1154 17.4997 20.1154ZM4.88459 19.6154H9.11539V15.3846H4.88459V19.6154ZM9.83844 9.11541H14.1615L12 5.63846L9.83844 9.11541Z" fill="#17191F"/>
</g>
</g>
</svg>
