<svg width="24" height="24" viewBox="0 0 24 24" fill="none" xmlns="http://www.w3.org/2000/svg">
<g id="Category">
<path id="Union" fill-rule="evenodd" clip-rule="evenodd" d="M14.4 6.7C14.4 5.42975 15.4297 4.4 16.7 4.4C17.9703 4.4 19 5.42975 19 6.7C19 7.97026 17.9703 9 16.7 9C15.4297 9 14.4 7.97026 14.4 6.7ZM16.7 3C14.6565 3 13 4.65655 13 6.7C13 8.74345 14.6565 10.4 16.7 10.4C18.7435 10.4 20.4 8.74345 20.4 6.7C20.4 4.65655 18.7435 3 16.7 3ZM4.4 16.7C4.4 15.4297 5.42975 14.4 6.7 14.4C7.97026 14.4 9 15.4297 9 16.7C9 17.9703 7.97026 19 6.7 19C5.42975 19 4.4 17.9703 4.4 16.7ZM6.7 13C4.65655 13 3 14.6565 3 16.7C3 18.7435 4.65655 20.4 6.7 20.4C8.74345 20.4 10.4 18.7435 10.4 16.7C10.4 14.6565 8.74345 13 6.7 13ZM13 13H13.7H19.7H20.4V13.7V19.7V20.4H19.7H13.7H13V19.7V13.7V13ZM3.7 3H3V3.7V9.7V10.4H3.7H9.7H10.4V9.7V3.7V3H9.7H3.7ZM4.4 9V4.4H9V9H4.4ZM14.4 14.4V19H19V14.4H14.4Z" fill="#17191F"/>
</g>
</svg>
