<svg width="17" height="16" viewBox="0 0 17 16" fill="none" xmlns="http://www.w3.org/2000/svg">
<g id="Edit">
<path id="Union" d="M12.5362 1.29004L15.2076 3.96143L6.40766 12.7614L6.26121 12.9079H6.0541C5.82943 12.9079 5.3949 12.9898 4.89858 13.1139C4.4202 13.2335 3.94142 13.3772 3.65864 13.4715L2.70996 13.7877L3.02619 12.839C3.12466 12.5436 3.26714 12.1158 3.3853 11.6668C3.5057 11.2092 3.58982 10.7694 3.58982 10.4436V10.2365L12.5362 1.29004ZM4.58241 10.6581C4.55544 11.0665 4.45851 11.5179 4.35237 11.9213C4.32327 12.0318 4.29288 12.141 4.26214 12.247C4.39103 12.2118 4.52352 12.1769 4.65605 12.1438C5.0526 12.0446 5.4903 11.9502 5.83607 11.9188L12.2756 5.47929L11.0184 4.22211L4.58436 10.6561L4.58241 10.6581ZM13.7934 3.96143L12.5362 2.70425L12.5296 2.71089L11.7408 3.49969L11.7255 3.515L12.9827 4.77218L13.7934 3.96143ZM8.66728 12.8305V13.8305H15.0006V12.8305H8.66728Z" fill="#17191F"/>
</g>
</svg>
