<svg width="24" height="24" viewBox="0 0 24 24" fill="none" xmlns="http://www.w3.org/2000/svg">
<g id="group">
<mask id="mask0_1355_2435" style="mask-type:alpha" maskUnits="userSpaceOnUse" x="0" y="0" width="24" height="24">
<rect id="Bounding box" width="24" height="24" fill="#D9D9D9"/>
</mask>
<g mask="url(#mask0_1355_2435)">
<path id="group_2" d="M1.7981 19.3077V17.0846C1.7981 16.5692 1.93111 16.1093 2.19715 15.7048C2.46316 15.3003 2.81843 14.9856 3.26295 14.7607C4.2133 14.2959 5.16891 13.9375 6.1298 13.6856C7.0907 13.4337 8.14679 13.3077 9.29807 13.3077C10.4494 13.3077 11.5054 13.4337 12.4663 13.6856C13.4272 13.9375 14.3828 14.2959 15.3332 14.7607C15.7777 14.9856 16.133 15.3003 16.399 15.7048C16.665 16.1093 16.798 16.5692 16.798 17.0846V19.3077H1.7981ZM18.798 19.3077V16.9615C18.798 16.3051 18.6373 15.6796 18.3159 15.0848C17.9944 14.4901 17.5385 13.9797 16.9481 13.5539C17.6186 13.6539 18.2551 13.8087 18.8576 14.0183C19.4602 14.2279 20.0352 14.4757 20.5826 14.7616C21.0993 15.0372 21.4983 15.3621 21.7797 15.7362C22.0611 16.1103 22.2018 16.5187 22.2018 16.9615V19.3077H18.798ZM9.29807 11.6923C8.33559 11.6923 7.51164 11.3496 6.82622 10.6642C6.1408 9.97876 5.7981 9.15481 5.7981 8.19233C5.7981 7.22983 6.1408 6.40588 6.82622 5.72048C7.51164 5.03506 8.33559 4.69235 9.29807 4.69235C10.2606 4.69235 11.0845 5.03506 11.7699 5.72048C12.4553 6.40588 12.798 7.22983 12.798 8.19233C12.798 9.15481 12.4553 9.97876 11.7699 10.6642C11.0845 11.3496 10.2606 11.6923 9.29807 11.6923ZM17.9326 8.19233C17.9326 9.15481 17.5899 9.97876 16.9045 10.6642C16.2191 11.3496 15.3951 11.6923 14.4326 11.6923C14.3198 11.6923 14.1762 11.6795 14.0019 11.6538C13.8275 11.6282 13.6839 11.6 13.5711 11.5692C13.9655 11.0951 14.2686 10.5691 14.4803 9.9913C14.6921 9.41347 14.798 8.81341 14.798 8.19113C14.798 7.56886 14.69 6.97119 14.474 6.3981C14.258 5.82504 13.957 5.29748 13.5711 4.81543C13.7147 4.76414 13.8583 4.73081 14.0019 4.71543C14.1455 4.70004 14.289 4.69235 14.4326 4.69235C15.3951 4.69235 16.2191 5.03506 16.9045 5.72048C17.5899 6.40588 17.9326 7.22983 17.9326 8.19233ZM3.29807 17.8077H15.2981V17.0846C15.2981 16.8756 15.2458 16.6897 15.1413 16.5269C15.0368 16.3641 14.8711 16.2218 14.6442 16.1C13.8211 15.6756 12.9737 15.3542 12.1019 15.1356C11.2301 14.917 10.2955 14.8077 9.29807 14.8077C8.30064 14.8077 7.36602 14.917 6.49422 15.1356C5.62244 15.3542 4.775 15.6756 3.95192 16.1C3.725 16.2218 3.5593 16.3641 3.4548 16.5269C3.35031 16.6897 3.29807 16.8756 3.29807 17.0846V17.8077ZM9.29807 10.1923C9.84807 10.1923 10.3189 9.99649 10.7106 9.60483C11.1022 9.21316 11.2981 8.74233 11.2981 8.19233C11.2981 7.64233 11.1022 7.17149 10.7106 6.77983C10.3189 6.38816 9.84807 6.19233 9.29807 6.19233C8.74807 6.19233 8.27724 6.38816 7.88557 6.77983C7.4939 7.17149 7.29807 7.64233 7.29807 8.19233C7.29807 8.74233 7.4939 9.21316 7.88557 9.60483C8.27724 9.99649 8.74807 10.1923 9.29807 10.1923Z" fill="#17191F"/>
</g>
</g>
</svg>
