<svg width="73" height="72" viewBox="0 0 73 72" fill="none" xmlns="http://www.w3.org/2000/svg">
<g id="Mail">
<path id="Union" d="M7.40015 14.3999V57.5999H65.6002V14.3999H7.40015ZM61.18 18.5999C60.246 22.9125 56.42 25.9949 51.2206 28.9196C49.761 29.7406 48.248 30.5204 46.7235 31.3002L46.3284 31.5022C44.9455 32.2092 43.5532 32.9209 42.2381 33.6442C40.1727 34.7802 38.1403 36.0253 36.5001 37.4815C34.86 36.0253 32.8276 34.7802 30.7622 33.6442C29.4471 32.9209 28.0547 32.2091 26.6718 31.5022L26.2768 31.3002C24.7523 30.5204 23.2393 29.7406 21.7797 28.9196C16.5803 25.9949 12.7542 22.9125 11.8203 18.5999H61.18ZM11.6001 26.6065C13.8934 29.0488 16.8453 30.9628 19.7206 32.5802C21.261 33.4467 22.8417 34.2607 24.3641 35.0394L24.7516 35.2376C26.1463 35.9506 27.4819 36.6334 28.7381 37.3243C31.5343 38.8622 33.6422 40.2891 34.8603 41.8118L36.5001 43.8615L38.14 41.8118C39.3581 40.2891 41.466 38.8622 44.2622 37.3243C45.5183 36.6335 46.8538 35.9507 48.2483 35.2378L48.6362 35.0394C50.1586 34.2607 51.7393 33.4467 53.2797 32.5802C56.155 30.9628 59.1068 29.0488 61.4001 26.6065V53.3999H11.6001V26.6065Z" fill="#1049A9"/>
</g>
</svg>
