<svg width="46" height="46" viewBox="0 0 46 46" fill="none" xmlns="http://www.w3.org/2000/svg">
<g id="noun-finance-raise-1978440 1">
<g id="Group">
<path id="Vector" d="M11.5454 43.7272C11.8864 43.7272 12.2273 43.3863 12.2273 43.0454V36.1591C12.2273 35.8181 11.8864 35.4772 11.5454 35.4772H6.77271C6.36362 35.4772 6.0909 35.8181 6.0909 36.1591V43.0454C6.0909 43.3863 6.36362 43.7272 6.77271 43.7272H11.5454Z" fill="#1EB100"/>
<path id="Vector_2" d="M21.0909 43.7272C21.5 43.7272 21.7727 43.3863 21.7727 43.0454V31.1136C21.7727 30.7727 21.5 30.4318 21.0909 30.4318H16.3182C15.9773 30.4318 15.6364 30.7727 15.6364 31.1136V43.0454C15.6364 43.3863 15.9773 43.7272 16.3182 43.7272H21.0909Z" fill="#1EB100"/>
<path id="Vector_3" d="M30.5681 43.7272C30.909 43.7272 31.2499 43.3863 31.2499 43.0454V33.5C31.2499 33.1591 30.909 32.8181 30.5681 32.8181H25.7954C25.3863 32.8181 25.1136 33.1591 25.1136 33.5V43.0454C25.1136 43.3863 25.3863 43.7272 25.7954 43.7272H30.5681Z" fill="#1EB100"/>
<path id="Vector_4" d="M1.86361 28.7273C1.45452 28.7273 1.18179 29 1.18179 29.4091C1.18179 29.75 1.45452 30.0909 1.86361 30.0909C2.34088 30.0909 2.74998 30.0909 3.22725 30.0909C18.4318 30.0909 31.3863 23.2046 41.8182 9.56821L42.9773 8.00003L43.5227 11.4091C43.5909 11.75 43.8636 11.9546 44.2045 11.9546C44.2727 11.9546 44.2727 11.9546 44.3409 11.9546C44.6818 11.8864 44.9545 11.5455 44.8863 11.1364L44 6.09094C44 6.09094 44 6.09094 44 6.02276C44 5.95457 44 5.95457 43.9318 5.88639V5.81821C43.9318 5.75003 43.8636 5.75003 43.8636 5.68185C43.8636 5.61366 43.7954 5.61366 43.7273 5.54548C43.5909 5.4773 43.4545 5.40912 43.3182 5.40912C43.3182 5.40912 43.25 5.40912 43.1818 5.40912L38.1363 6.29548C37.7954 6.36366 37.5227 6.70457 37.5909 7.11366C37.6591 7.45457 38 7.7273 38.3409 7.65912L41.75 7.11366L40.6591 8.68185C30.2273 22.3864 17.2045 29.1364 1.86361 28.7273Z" fill="#1EB100"/>
<path id="Vector_5" d="M40.1136 43.7272C40.5227 43.7272 40.7954 43.3863 40.7954 43.0454V22.5909C40.7954 22.25 40.5227 21.9091 40.1136 21.9091H35.3409C35 21.9091 34.6591 22.25 34.6591 22.5909V43.0454C34.6591 43.3863 35 43.7272 35.3409 43.7272H40.1136Z" fill="#1EB100"/>
<path id="Vector_6" d="M13.3182 22.0454C18.7727 22.0454 23.2045 17.6136 23.2045 12.1591C23.2045 6.70452 18.7727 2.27271 13.3182 2.27271C7.86361 2.27271 3.43179 6.70452 3.43179 12.1591C3.43179 17.6136 7.86361 22.0454 13.3182 22.0454ZM13.3182 12.8409C11.75 12.8409 10.4545 11.5454 10.4545 9.97725C10.4545 8.61361 11.4091 7.52271 12.6363 7.1818V6.63634C12.6363 6.29543 12.9772 5.95452 13.3182 5.95452C13.7272 5.95452 14 6.29543 14 6.63634V7.1818C15.2272 7.45452 16.1818 8.61361 16.1818 9.97725C16.1818 10.3182 15.8409 10.6591 15.5 10.6591C15.1591 10.6591 14.8182 10.3182 14.8182 9.97725C14.8182 9.15907 14.1363 8.47725 13.3182 8.47725C12.5 8.47725 11.8182 9.15907 11.8182 9.97725C11.8182 10.7954 12.5 11.4773 13.3182 11.4773C14.8863 11.4773 16.1818 12.7727 16.1818 14.3409C16.1818 15.7045 15.2272 16.8636 14 17.1363V17.6818C14 18.0909 13.7272 18.3636 13.3182 18.3636C12.9772 18.3636 12.6363 18.0909 12.6363 17.6818V17.1363C11.4091 16.8636 10.4545 15.7045 10.4545 14.3409C10.4545 14 10.7272 13.6591 11.1363 13.6591C11.4772 13.6591 11.8182 14 11.8182 14.3409C11.8182 15.1591 12.5 15.8409 13.3182 15.8409C14.1363 15.8409 14.8182 15.1591 14.8182 14.3409C14.8182 13.5227 14.1363 12.8409 13.3182 12.8409Z" fill="#1EB100"/>
</g>
</g>
</svg>
