<svg width="46" height="46" viewBox="0 0 46 46" fill="none" xmlns="http://www.w3.org/2000/svg">
<g id="noun-finance-raise-1978440 1">
<g id="Group">
<path id="Vector" d="M11.5453 43.7272C11.8862 43.7272 12.2271 43.3863 12.2271 43.0454V36.1591C12.2271 35.8181 11.8862 35.4772 11.5453 35.4772H6.77255C6.36346 35.4772 6.09073 35.8181 6.09073 36.1591V43.0454C6.09073 43.3863 6.36346 43.7272 6.77255 43.7272H11.5453Z" fill="#FF6B00"/>
<path id="Vector_2" d="M21.0907 43.7272C21.4998 43.7272 21.7726 43.3863 21.7726 43.0454V31.1136C21.7726 30.7727 21.4998 30.4318 21.0907 30.4318H16.318C15.9771 30.4318 15.6362 30.7727 15.6362 31.1136V43.0454C15.6362 43.3863 15.9771 43.7272 16.318 43.7272H21.0907Z" fill="#FF6B00"/>
<path id="Vector_3" d="M30.5681 43.7272C30.909 43.7272 31.2499 43.3863 31.2499 43.0454V33.5C31.2499 33.1591 30.909 32.8181 30.5681 32.8181H25.7953C25.3863 32.8181 25.1135 33.1591 25.1135 33.5V43.0454C25.1135 43.3863 25.3863 43.7272 25.7953 43.7272H30.5681Z" fill="#FF6B00"/>
<path id="Vector_4" d="M1.86358 28.7273C1.45449 28.7273 1.18176 29 1.18176 29.4091C1.18176 29.75 1.45449 30.0909 1.86358 30.0909C2.34085 30.0909 2.74994 30.0909 3.22722 30.0909C18.4318 30.0909 31.3863 23.2046 41.8181 9.56821L42.9772 8.00003L43.5227 11.4091C43.5909 11.75 43.8636 11.9546 44.2045 11.9546C44.2727 11.9546 44.2727 11.9546 44.3409 11.9546C44.6818 11.8864 44.9545 11.5455 44.8863 11.1364L43.9999 6.09094C43.9999 6.09094 43.9999 6.09094 43.9999 6.02276C43.9999 5.95457 44 5.95457 43.9318 5.88639V5.81821C43.9318 5.75003 43.8636 5.75003 43.8636 5.68185C43.8636 5.61366 43.7954 5.61366 43.7272 5.54548C43.5909 5.4773 43.4545 5.40912 43.3181 5.40912C43.3181 5.40912 43.2499 5.40912 43.1818 5.40912L38.1363 6.29548C37.7954 6.36366 37.5227 6.70457 37.5909 7.11366C37.659 7.45457 37.9999 7.7273 38.3409 7.65912L41.7499 7.11366L40.659 8.68185C30.2272 22.3864 17.2045 29.1364 1.86358 28.7273Z" fill="#FF6B00"/>
<path id="Vector_5" d="M40.1136 43.7272C40.5227 43.7272 40.7954 43.3863 40.7954 43.0454V22.5909C40.7954 22.25 40.5227 21.9091 40.1136 21.9091H35.3409C35 21.9091 34.6591 22.25 34.6591 22.5909V43.0454C34.6591 43.3863 35 43.7272 35.3409 43.7272H40.1136Z" fill="#FF6B00"/>
<path id="Vector_6" d="M13.3181 22.0454C18.7727 22.0454 23.2045 17.6136 23.2045 12.1591C23.2045 6.70452 18.7727 2.27271 13.3181 2.27271C7.86358 2.27271 3.43176 6.70452 3.43176 12.1591C3.43176 17.6136 7.86358 22.0454 13.3181 22.0454ZM13.3181 12.8409C11.7499 12.8409 10.4545 11.5454 10.4545 9.97725C10.4545 8.61361 11.409 7.52271 12.6363 7.1818V6.63634C12.6363 6.29543 12.9772 5.95452 13.3181 5.95452C13.7272 5.95452 13.9999 6.29543 13.9999 6.63634V7.1818C15.2272 7.45452 16.1818 8.61361 16.1818 9.97725C16.1818 10.3182 15.8409 10.6591 15.4999 10.6591C15.159 10.6591 14.8181 10.3182 14.8181 9.97725C14.8181 9.15907 14.1363 8.47725 13.3181 8.47725C12.4999 8.47725 11.8181 9.15907 11.8181 9.97725C11.8181 10.7954 12.4999 11.4773 13.3181 11.4773C14.8863 11.4773 16.1818 12.7727 16.1818 14.3409C16.1818 15.7045 15.2272 16.8636 13.9999 17.1363V17.6818C13.9999 18.0909 13.7272 18.3636 13.3181 18.3636C12.9772 18.3636 12.6363 18.0909 12.6363 17.6818V17.1363C11.409 16.8636 10.4545 15.7045 10.4545 14.3409C10.4545 14 10.7272 13.6591 11.1363 13.6591C11.4772 13.6591 11.8181 14 11.8181 14.3409C11.8181 15.1591 12.4999 15.8409 13.3181 15.8409C14.1363 15.8409 14.8181 15.1591 14.8181 14.3409C14.8181 13.5227 14.1363 12.8409 13.3181 12.8409Z" fill="#FF6B00"/>
</g>
</g>
</svg>
