<svg width="46" height="46" viewBox="0 0 46 46" fill="none" xmlns="http://www.w3.org/2000/svg">
<g id="noun-campaign-6251077 1">
<path id="Vector" fill-rule="evenodd" clip-rule="evenodd" d="M37.2894 5.47208C36.8218 5.47208 36.3966 5.66378 36.0879 5.97293L36.0865 5.97158C35.6082 6.45128 35.5875 6.90038 35.5875 7.49708V34.3783C35.5875 36.5918 38.9922 36.6355 38.9922 34.3783V7.17443C38.9922 6.70733 38.8 6.28118 38.4913 5.97293L38.4927 5.97158C38.1835 5.66333 37.7578 5.47208 37.2894 5.47208ZM40.6792 18.4028V23.149C41.4406 23.149 42.0153 22.9937 42.5571 22.4528L42.5557 22.4515C43.9345 21.0727 43.2339 18.4028 40.6792 18.4028ZM18.6342 29.1389C16.8099 28.7204 14.959 28.3613 13.1329 28.0783L16.4688 40.528H21.6861L18.6342 29.1389ZM12.8319 26.312V15.2213C19.5846 14.2282 28.1535 11.9156 33.8995 8.92583V32.6269C28.2862 29.7059 19.5324 27.2872 12.8319 26.312ZM11.1444 15.3347H6.84371C1.38521 15.3347 1.38566 26.2171 6.84371 26.2171H11.1444V15.3347Z" fill="#1049A9"/>
</g>
</svg>
