<svg width="46" height="46" viewBox="0 0 46 46" fill="none" xmlns="http://www.w3.org/2000/svg">
<g id="noun-donation-186591 1" clip-path="url(#clip0_825_5360)">
<path id="Vector" d="M26.601 33.6556C18.7476 33.5957 14.316 27.0468 12.4382 23.6488C10.5606 20.2468 8.96003 20.6016 9.30057 19.3075C9.85305 17.2053 14.4372 21.0722 16.5314 23.5152C18.6243 25.9564 21.6357 27.581 25.6782 27.7356C24.0125 25.063 18.6918 23.4765 20.3307 22.6148C21.8452 21.8184 26.6707 22.7779 33.4069 25.6852C35.7176 26.6826 37.3684 28.517 38.5403 30.4969C55.9424 10.8215 36.8933 -4.92432 23 6.73348C16.2243 1.04808 8.22223 1.88098 3.82019 6.50854C6.309 7.3144 9.4324 7.90206 12.8169 7.92705C20.6698 7.98699 25.1019 14.5358 26.9791 17.9341C28.8563 21.3363 30.4574 20.9812 30.1168 22.2753C29.5643 24.3775 24.9806 20.5105 22.8861 18.0677C20.7931 15.6264 17.7816 14.0019 13.7392 13.8472C15.4048 16.5199 20.7261 18.1062 19.0866 18.9681C17.5729 19.7648 12.7474 18.8054 6.01043 15.8977C3.80362 14.9452 2.19866 13.2291 1.03804 11.3521C-1.26152 19.1275 3.40095 31.1167 23 42.8214C27.5415 40.1092 31.2803 37.3817 34.317 34.6949C32.0721 34.0898 29.4274 33.6766 26.601 33.6556Z" fill="#FFA400"/>
</g>
<defs>
<clipPath id="clip0_825_5360">
<rect width="45" height="45" fill="white" transform="translate(0.5 0.5)"/>
</clipPath>
</defs>
</svg>
