<svg width="17" height="16" viewBox="0 0 17 16" fill="none" xmlns="http://www.w3.org/2000/svg">
<g id="Eye" clip-path="url(#clip0_2227_583)">
<path id="Vector (Stroke)" fill-rule="evenodd" clip-rule="evenodd" d="M-0.562989 8.00005C1.04509 9.79862 2.37996 11.0871 3.72803 11.9462C5.16239 12.8604 6.63119 13.3 8.50177 13.3C10.3723 13.3 11.8411 12.8604 13.2755 11.9462C14.6236 11.0871 15.9584 9.79862 17.5665 8.00005C15.9584 6.20148 14.6236 4.913 13.2755 4.05385C11.8411 3.13971 10.3723 2.70005 8.50177 2.70005C6.63119 2.70005 5.16239 3.13971 3.72803 4.05385C2.37996 4.913 1.04509 6.20148 -0.562989 8.00005ZM2.97561 2.87323C4.64121 1.81171 6.37234 1.30005 8.50177 1.30005C10.6312 1.30005 12.3623 1.81171 14.0279 2.87323C15.6671 3.91788 17.2217 5.48273 19.0276 7.53801L19.4336 8.00005L19.0276 8.46209C17.2217 10.5174 15.6671 12.0822 14.0279 13.1269C12.3623 14.1884 10.6312 14.7 8.50177 14.7C6.37234 14.7 4.64121 14.1884 2.97561 13.1269C1.33647 12.0822 -0.218212 10.5174 -2.02408 8.46209L-2.43005 8.00005L-2.02408 7.53801C-0.218212 5.48273 1.33647 3.91788 2.97561 2.87323ZM8.50177 5.70005C7.23151 5.70005 6.20177 6.72979 6.20177 8.00005C6.20177 9.2703 7.23151 10.3 8.50177 10.3C9.77202 10.3 10.8018 9.2703 10.8018 8.00005C10.8018 6.72979 9.77202 5.70005 8.50177 5.70005ZM4.80177 8.00005C4.80177 5.95659 6.45831 4.30005 8.50177 4.30005C10.5452 4.30005 12.2018 5.95659 12.2018 8.00005C12.2018 10.0435 10.5452 11.7 8.50177 11.7C6.45831 11.7 4.80177 10.0435 4.80177 8.00005Z" fill="#17191F"/>
</g>
<defs>
<clipPath id="clip0_2227_583">
<rect width="16" height="16" fill="white" transform="translate(0.5)"/>
</clipPath>
</defs>
</svg>
