<svg width="16" height="16" viewBox="0 0 16 16" fill="none" xmlns="http://www.w3.org/2000/svg">
<g id="Search">
<path id="Vector (Stroke)" fill-rule="evenodd" clip-rule="evenodd" d="M7.33345 2.46654C4.64566 2.46654 2.46678 4.64542 2.46678 7.3332C2.46678 10.021 4.64566 12.1999 7.33345 12.1999C8.67747 12.1999 9.8935 11.6557 10.7747 10.7745C11.6559 9.89325 12.2001 8.67723 12.2001 7.3332C12.2001 4.64542 10.0212 2.46654 7.33345 2.46654ZM1.53345 7.3332C1.53345 4.12995 4.1302 1.5332 7.33345 1.5332C10.5367 1.5332 13.1334 4.12995 13.1334 7.3332C13.1334 8.76666 12.6129 10.0793 11.7514 11.0912L14.6601 13.9999L14.0001 14.6598L11.0915 11.7512C10.0795 12.6127 8.7669 13.1332 7.33345 13.1332C4.1302 13.1332 1.53345 10.5365 1.53345 7.3332Z" fill="#17191F"/>
</g>
</svg>
