<svg width="24" height="24" viewBox="0 0 24 24" fill="none" xmlns="http://www.w3.org/2000/svg">
<g id="volunteer_activism">
<mask id="mask0_961_1894" style="mask-type:alpha" maskUnits="userSpaceOnUse" x="0" y="0" width="24" height="24">
<rect id="Bounding box" width="24" height="24" fill="#D9D9D9"/>
</mask>
<g mask="url(#mask0_961_1894)">
<path id="volunteer_activism_2" d="M14.0096 22.2115L6.70189 20.1269V21.5H1.70197V11.9231H8.86344L16.5673 14.7693V16.577H21.5V19.8846L14.0096 22.2115ZM3.20194 20H5.20194V13.4231H3.20194V20ZM13.9596 20.6308L19.9385 18.7904V18.0769H12.9404L9.82499 17.0461L10.2904 15.6173L13.2154 16.577H15.0673V15.7923L8.60962 13.4231H6.70189V18.5769L13.9596 20.6308ZM15.8461 12.6923L11.8885 8.86343C11.4102 8.40189 11.008 7.88814 10.6817 7.32218C10.3555 6.75619 10.1923 6.13983 10.1923 5.47308C10.1923 4.64723 10.4814 3.94525 11.0594 3.36715C11.6375 2.78905 12.3395 2.5 13.1654 2.5C13.7051 2.5 14.2035 2.63013 14.6606 2.8904C15.1176 3.15067 15.5128 3.48208 15.8461 3.88463C16.1795 3.48208 16.5747 3.15067 17.0317 2.8904C17.4888 2.63013 17.9872 2.5 18.5269 2.5C19.3527 2.5 20.0547 2.78905 20.6328 3.36715C21.2109 3.94525 21.5 4.64723 21.5 5.47308C21.5 6.13983 21.3394 6.75619 21.0182 7.32218C20.6971 7.88814 20.2974 8.40189 19.8192 8.86343L15.8461 12.6923ZM15.8461 10.6039L18.7058 7.8327C19.0417 7.5032 19.3413 7.14486 19.6048 6.75768C19.8683 6.37051 20 5.94231 20 5.47308C20 5.06153 19.8574 4.71313 19.5721 4.42788C19.2868 4.14261 18.9384 3.99998 18.5269 3.99998C18.2102 3.99998 17.9205 4.08267 17.6577 4.24805C17.3948 4.41345 17.1628 4.62308 16.9615 4.87693L15.8461 6.23458L14.7308 4.87693C14.5295 4.62308 14.2974 4.41345 14.0346 4.24805C13.7718 4.08267 13.482 3.99998 13.1654 3.99998C12.7538 3.99998 12.4054 4.14261 12.1202 4.42788C11.8349 4.71313 11.6923 5.06153 11.6923 5.47308C11.6923 5.94231 11.824 6.37051 12.0875 6.75768C12.3509 7.14486 12.6506 7.5032 12.9865 7.8327L15.8461 10.6039Z" fill="white"/>
</g>
</g>
</svg>
