<svg width="24" height="24" viewBox="0 0 24 24" fill="none" xmlns="http://www.w3.org/2000/svg">
<g id="volunteer_activism">
<mask id="mask0_954_2420" style="mask-type:alpha" maskUnits="userSpaceOnUse" x="0" y="0" width="24" height="24">
<rect id="Bounding box" width="24" height="24" fill="#D9D9D9"/>
</mask>
<g mask="url(#mask0_954_2420)">
<path id="volunteer_activism_2" d="M14.0096 22.2115L6.70189 20.1269V21.5H1.70197V11.9232H8.86344L16.5673 14.7693V16.577H21.5V19.8846L14.0096 22.2115ZM3.20194 20H5.20194V13.4231H3.20194V20ZM13.9596 20.6308L19.9385 18.7904V18.0769H12.9404L9.82499 17.0462L10.2904 15.6174L13.2154 16.577H15.0673V15.7924L8.60962 13.4231H6.70189V18.5769L13.9596 20.6308ZM15.8461 12.6923L11.8885 8.86346C11.4102 8.40192 11.008 7.88817 10.6817 7.32221C10.3555 6.75622 10.1923 6.13986 10.1923 5.47311C10.1923 4.64726 10.4814 3.94528 11.0594 3.36718C11.6375 2.78908 12.3395 2.50003 13.1654 2.50003C13.7051 2.50003 14.2035 2.63016 14.6606 2.89043C15.1176 3.1507 15.5128 3.48211 15.8461 3.88466C16.1795 3.48211 16.5747 3.1507 17.0317 2.89043C17.4888 2.63016 17.9872 2.50003 18.5269 2.50003C19.3527 2.50003 20.0547 2.78908 20.6328 3.36718C21.2109 3.94528 21.5 4.64726 21.5 5.47311C21.5 6.13986 21.3394 6.75622 21.0182 7.32221C20.6971 7.88817 20.2974 8.40192 19.8192 8.86346L15.8461 12.6923ZM15.8461 10.6039L18.7058 7.83273C19.0417 7.50323 19.3413 7.14489 19.6048 6.75771C19.8683 6.37054 20 5.94234 20 5.47311C20 5.06156 19.8574 4.71316 19.5721 4.42791C19.2868 4.14264 18.9384 4.00001 18.5269 4.00001C18.2102 4.00001 17.9205 4.0827 17.6577 4.24808C17.3948 4.41348 17.1628 4.62311 16.9615 4.87696L15.8461 6.23461L14.7308 4.87696C14.5295 4.62311 14.2974 4.41348 14.0346 4.24808C13.7718 4.0827 13.482 4.00001 13.1654 4.00001C12.7538 4.00001 12.4054 4.14264 12.1202 4.42791C11.8349 4.71316 11.6923 5.06156 11.6923 5.47311C11.6923 5.94234 11.824 6.37054 12.0875 6.75771C12.3509 7.14489 12.6506 7.50323 12.9865 7.83273L15.8461 10.6039Z" fill="#1C1B1F"/>
</g>
</g>
</svg>
